<svg id="visual" viewBox="0 0 900 600" width="900" height="600" xmlns="http://www.w3.org/2000/svg" xmlns:xlink="http://www.w3.org/1999/xlink" version="1.1"><rect x="0" y="0" width="900" height="600" fill="#020202"></rect><defs><linearGradient id="grad1_0" x1="33.3%" y1="0%" x2="100%" y2="100%"><stop offset="20%" stop-color="#020202" stop-opacity="1"></stop><stop offset="80%" stop-color="#020202" stop-opacity="1"></stop></linearGradient></defs><defs><linearGradient id="grad2_0" x1="0%" y1="0%" x2="66.7%" y2="100%"><stop offset="20%" stop-color="#020202" stop-opacity="1"></stop><stop offset="80%" stop-color="#020202" stop-opacity="1"></stop></linearGradient></defs><g transform="translate(900, 0)"><path d="M0 324.5C-46.7 323.1 -93.4 321.7 -123.2 297.5C-153 273.3 -166 226.4 -196.6 196.6C-227.2 166.8 -275.5 154.1 -299.8 124.2C-324.1 94.3 -324.3 47.1 -324.5 0L0 0Z" fill="#331E07"></path></g><g transform="translate(0, 600)"><path d="M0 -324.5C29.8 -291.2 59.5 -257.8 102.6 -247.6C145.6 -237.4 201.9 -250.2 229.5 -229.5C257 -208.7 255.9 -154.4 267 -110.6C278.1 -66.8 301.3 -33.4 324.5 0L0 0Z" fill="#331E07"></path></g></svg>